<svg xmlns="http://www.w3.org/2000/svg" viewBox="0 0 24 24" fill="#00A1E0"><path d="M10.006 5.415a4.195 4.195 0 0 1 3.045-1.312c1.446 0 2.733.735 3.49 1.852a5.065 5.065 0 0 1 2.212-.51c2.808 0 5.083 2.29 5.083 5.115s-2.275 5.116-5.083 5.116a5.036 5.036 0 0 1-1.327-.177 3.876 3.876 0 0 1-3.386 1.997c-.588 0-1.145-.13-1.644-.363a4.737 4.737 0 0 1-4.22 2.584c-2.032 0-3.765-1.278-4.432-3.073A4.453 4.453 0 0 1 3.17 16.7c-2.055 0-3.17-1.469-3.17-3.556 0-1.972 1.5-3.601 3.424-3.772a4.178 4.178 0 0 1-.123-.987 4.292 4.292 0 0 1 4.305-4.282c1.268 0 2.412.549 3.201 1.422l-.801-.11z"/></svg>
